<svg xmlns="http://www.w3.org/2000/svg" viewBox="0 0 32 32" role="img" aria-label="MS">
  <path d="M15.42 22.50L13.90 22.50L13.90 11.86L13.14 11.86L13.14 9.58L13.90 9.58L13.90 8.06L15.42 8.06L15.42 22.50M4.78 22.50L3.26 22.50L3.26 8.06L4.78 8.06L4.78 9.58L5.54 9.58L5.54 11.86L4.78 11.86L4.78 22.50M8.58 20.22L7.82 20.22L7.82 18.70L7.06 18.70L7.06 16.42L6.30 16.42L6.30 14.14L5.54 14.14L5.54 11.86L7.06 11.86L7.06 14.14L7.82 14.14L7.82 16.42L8.58 16.42L8.58 18.70L10.10 18.70L10.10 16.42L10.86 16.42L10.86 14.14L11.62 14.14L11.62 11.86L13.14 11.86L13.14 14.14L12.38 14.14L12.38 16.42L11.62 16.42L11.62 18.70L10.86 18.70L10.86 20.22L10.10 20.22L10.10 21.74L8.58 21.74 M21.14 21.74L19.62 21.74L19.62 20.22L18.86 20.22L18.86 17.94L20.38 17.94L20.38 20.22L21.14 20.22L21.14 20.98L26.46 20.98L26.46 20.22L27.22 20.22L27.22 17.18L25.70 17.18L25.70 16.42L23.42 16.42L23.42 15.66L21.14 15.66L21.14 14.90L19.62 14.90L19.62 14.14L18.86 14.14L18.86 10.34L19.62 10.34L19.62 8.82L21.14 8.82L21.14 8.06L25.70 8.06L25.70 8.82L27.22 8.82L27.22 9.58L27.98 9.58L27.98 11.10L28.74 11.10L28.74 12.62L27.22 12.62L27.22 11.10L26.46 11.10L26.46 10.34L25.70 10.34L25.70 9.58L21.14 9.58L21.14 10.34L20.38 10.34L20.38 13.38L21.14 13.38L21.14 14.14L24.18 14.14L24.18 14.90L26.46 14.90L26.46 15.66L27.98 15.66L27.98 17.18L28.74 17.18L28.74 20.22L27.98 20.22L27.98 21.74L26.46 21.74L26.46 22.50L21.14 22.50" fill="#171717"/>
  <style>
    @media (prefers-color-scheme: dark) {
      path { fill: #fafafa; }
    }
  </style>
</svg>